<?xml version="1.0" encoding="UTF-8" standalone="no"?>
<!-- Created with Inkscape (http://www.inkscape.org/) by Marsupilami -->
<svg xmlns:svg="http://www.w3.org/2000/svg" xmlns="http://www.w3.org/2000/svg" version="1.0" width="1024" height="450" viewBox="0 0 114.07162 50.094616" id="svg2506">
  <defs id="defs2508">
    <clipPath id="clipPath2450">
      <path d="M 487.53,57.52 L 579.094,57.52 L 579.094,98.15 L 487.53,98.15 L 487.53,57.52 z " id="path2452"/>
    </clipPath>
  </defs>
  <g transform="translate(-580.918,-960.06811)" id="layer1">
    <g transform="matrix(1.25,0,0,-1.25,-28.724625,1082.3975)" id="g2446">
      <g clip-path="url(#clipPath2450)" id="g2448">
        <g transform="translate(540.3813,87.1157)" id="g2454">
          <path d="M 0,0 L 3.427,-3.455 L 3.427,0.385 C 3.427,4.112 6.695,3.653 6.695,3.653 L 28.188,3.653 C 32.015,3.653 31.435,0.418 31.435,0.418 L 31.435,-18.874 C 31.435,-22.653 28.188,-22.191 28.188,-22.191 L 24.36,-22.191 L 24.36,-29.224 L 28.188,-29.224 C 39.596,-29.224 38.566,-18.916 38.566,-18.916 L 38.566,0.418 C 38.566,11.041 28.188,10.747 28.188,10.747 L 6.695,10.747 C -3.904,10.747 -3.557,0.418 -3.557,0.418 L -3.561,-3.45 L 0,0 z " style="fill:#a7a6a6;fill-opacity:1;fill-rule:nonzero;stroke:none" id="path2456"/>
        </g>
        <g transform="translate(543.7759,68.3408)" id="g2458">
          <path d="M 65.84375,15.125 L 61.375,19.40625 L 61.375,36.9375 C 61.375001,44.15125 67.225,50 74.4375,50 C 81.65125,50.000001 87.5,44.15125 87.5,36.9375 C 87.500001,29.725 81.65125,23.875 74.4375,23.875 C 73.39125,23.875001 72.32,23.98625 71.34375,24.21875 L 71.34375,34.0625 C 72.128751,33.191252 73.26625,32.65625 74.53125,32.65625 C 76.897503,32.656249 78.8125,34.57125 78.8125,36.9375 C 78.812499,39.30375 76.8975,41.21875 74.53125,41.21875 C 72.165003,41.21875 70.0625,39.2725 70.0625,36.90625 L 70.0625,19.40625 L 65.84375,15.125 z M 24.03125,30.21875 C 20.003687,30.29521 17.585313,31.161407 17.5,36.0625 C 17.40125,41.665 20.2175,41.669999 25.03125,42.09375 L 26.15625,42.21875 C 28.60375,42.4175 28.90375,42.368751 28.875,44.0625 C 28.84625,45.70375 28.0425,45.85625 25.59375,45.8125 C 23.04,45.76875 22.307499,45.47 22.34375,43.4375 L 17.34375,43.4375 C 17.23125,49.8475 20.52375,50.006249 25.5,50.09375 C 34.09875,50.24375 34.0375,47.04375 34.09375,43.8125 C 34.1725,39.33125 32.74625,38.58 26.96875,38.0625 L 24.8125,37.875 C 23.43375,37.74625 22.691251,37.688748 22.71875,36.125 C 22.7375,35.03125 22.967499,34.449999 25.78125,34.5 C 27.865,34.53625 28.69125,34.65 28.65625,36.65625 L 33.65625,36.65625 L 33.6875,35.84375 C 33.78125,30.45 30.11625,30.325001 25.84375,30.25 C 25.205312,30.238906 24.606616,30.207827 24.03125,30.21875 z M 0,30.46875 L 0,49.90625 L 5.1875,49.90625 L 5.1875,42.3125 L 10.59375,49.90625 L 17.03125,49.90625 L 9.59375,40 L 16.4375,30.46875 L 10.1875,30.46875 L 5.15625,37.78125 L 5.1875,30.46875 L 0,30.46875 z M 36.375,30.46875 L 36.375,49.90625 L 46.71875,49.90625 C 50.8425,49.90625 53.062499,49.271251 53.0625,44.5 C 53.0625,42.0625 52.564999,40.306251 49.6875,40.125 L 49.6875,39.9375 C 52.25375,39.5225 52.750002,37.90125 52.75,35.4375 C 52.75,31.185 50.4575,30.46875 46.59375,30.46875 L 36.375,30.46875 z M 41.5625,34.71875 L 45.9375,34.71875 C 47.39,34.77125 47.562501,35.2075 47.5625,36.375 C 47.5625,37.93 47.127499,38.250001 45.3125,38.25 L 41.5625,38.25 L 41.5625,34.71875 z M 88.25,41.125 C 87.053746,45.091251 84.15125,48.315 80.40625,49.96875 L 95.0625,49.9375 L 95.0625,41.125 L 88.25,41.125 z M 41.5625,41.84375 L 45.59375,41.84375 C 47.28,41.84375 47.875002,42.07875 47.875,43.6875 C 47.875,45.26875 47.186251,45.656249 45.5,45.65625 L 41.5625,45.65625 L 41.5625,41.84375 z " transform="matrix(0.8,0,0,-0.8,-56.0618,29.522712)" style="fill:#0e6cb1;fill-opacity:1;fill-rule:nonzero;stroke:none" id="path2460"/>
        </g>
      </g>
    </g>
  </g>
</svg>